<svg xmlns="http://www.w3.org/2000/svg" width="180.479" height="40" viewBox="0 0 180.479 40"><g id="Logo_Diagonal" data-name="Logo Diagonal" transform="translate(-170.002 -81)"><path id="Path_11137" data-name="Path 11137" d="M244.691,110.754a6.779,6.779,0,0,0,7.065-7.065c0-4.123-2.84-7.125-6.8-7.125H241.9v14.19ZM359.2,91.869h4.046v22.764H359.2V91.869Zm-11.493,19.4a3.864,3.864,0,0,0,3.821-4.121,3.86,3.86,0,1,0-7.686,0,3.822,3.822,0,0,0,3.865,4.121Zm7.7-11.73v15.1H351.56v-1.825h-.074a5.454,5.454,0,0,1-4.516,2.081c-4.181,0-7.23-3.093-7.23-7.757,0-4.591,3.065-7.851,7.111-7.851a5.687,5.687,0,0,1,4.453,1.963h.06V99.536Zm-23.855-.256c3.23,0,5.481,1.751,5.481,6.4v8.967h-4.046v-7.958c0-2.881-1.025-3.774-2.9-3.774-2.051,0-3.425,1.435-3.425,4.123v7.592h-4.046v-15.1h4.046v1.949h.044a6.291,6.291,0,0,1,4.846-2.2Zm-19.726,11.985a4.181,4.181,0,1,0-3.939-4.165,3.95,3.95,0,0,0,3.939,4.165Zm0,3.623c-4.8,0-8.032-3.29-8.032-7.788,0-4.514,3.233-7.821,8.032-7.821,4.7,0,8.029,3.186,8.029,7.821,0,4.618-3.334,7.788-8.029,7.788ZM293.3,110.693a3.722,3.722,0,0,0,3.818-3.912,3.828,3.828,0,1,0-3.818,3.912Zm7.683-11.158V112.9c0,4.709-2.084,8.106-7.881,8.106a12.242,12.242,0,0,1-6.188-1.526l.932-3.411a9.752,9.752,0,0,0,4.91,1.4c2.823,0,4.269-1.509,4.269-3.354V112.6h-.074a5.824,5.824,0,0,1-4.393,1.765,7.029,7.029,0,0,1-7.2-7.428c0-4.437,2.941-7.653,6.99-7.653a6.284,6.284,0,0,1,4.511,1.812h.077V99.536Zm-26.249,11.73a3.865,3.865,0,0,0,3.821-4.121,3.859,3.859,0,1,0-7.683,0,3.818,3.818,0,0,0,3.862,4.121Zm7.7-11.73v15.1h-3.848v-1.825h-.077A5.449,5.449,0,0,1,274,114.888c-4.181,0-7.232-3.093-7.232-7.757,0-4.591,3.065-7.851,7.111-7.851a5.687,5.687,0,0,1,4.453,1.963h.061V99.536Zm-22.64,0h4.046v15.1H259.8v-15.1Zm-.484-4.6a2.507,2.507,0,1,1,2.507,2.477,2.489,2.489,0,0,1-2.507-2.477Zm-21.7-2.265h7.26c6.944,0,11.4,4.53,11.4,11.023,0,6.474-4.242,10.943-11.309,10.943H237.61Z" transform="translate(-12.768 -2.473)" fill="#00a39b" fill-rule="evenodd"></path><path id="Path_11138" data-name="Path 11138" d="M239.822,98.624l.781,7.043a.937.937,0,0,0,1.122.816l15.619-3.191a.944.944,0,0,0,.693-1.256,20.725,20.725,0,0,0-4.123-6.578.957.957,0,0,0-.885-.3L240.576,97.6a.941.941,0,0,0-.753,1.028Zm.41,21.994a.941.941,0,0,0-1.034-.742l-3.689.445a.94.94,0,0,0-.566,1.586l4.822,5.019a.939.939,0,0,0,1.6-.841l-1.13-5.468Zm-.621-3.945-.8-7.257a.939.939,0,0,0-1.012-.833l-12.557,1a.941.941,0,0,0-.6,1.589l6.773,7.051a.935.935,0,0,0,.792.283l6.589-.8a.94.94,0,0,0,.822-1.039Zm16.108-1.284-12.955.921a.94.94,0,0,0-.866,1.042l.11.99.011.088,2,9.635a.94.94,0,0,0,1.572.487l6.878-6.6A24.251,24.251,0,0,0,256.6,116.8a.94.94,0,0,0-.882-1.407Zm3.321-9.148a16.215,16.215,0,0,1-.53,6.122.94.94,0,0,1-.841.684L242.45,114.13a.942.942,0,0,1-1-.836l-.393-3.557a.941.941,0,0,1,.745-1.028l16.117-3.3a.943.943,0,0,1,1.124.827Zm-20.68-.88-.882-7.942a.91.91,0,0,0-.118-.363l-3.532-6.2a.944.944,0,0,0-1.2-.393,23.078,23.078,0,0,0-6.369,4.409l-8.3,7.977a.939.939,0,0,0-.027,1.33l3.065,3.194a.946.946,0,0,0,.753.286L237.5,106.4a.944.944,0,0,0,.863-1.042Zm.393-10.3-2.6-4.549a.944.944,0,0,1,.651-1.394,17.24,17.24,0,0,1,13.033,2.79.942.942,0,0,1-.346,1.7l-9.742,1.9A.936.936,0,0,1,238.753,95.064Z" transform="translate(-47.659 -7.814)" fill="#00a39b" fill-rule="evenodd"></path></g></svg>